<?xml version="1.0" encoding="UTF-8"?>
<svg id="SVGDoc" width="1450" height="173" xmlns="http://www.w3.org/2000/svg" version="1.1" xmlns:xlink="http://www.w3.org/1999/xlink" xmlns:avocode="https://avocode.com/" viewBox="0 0 1450 173"><defs><filter id="Filter1015" width="144%" height="176%" x="-12%" y="-28%" filterUnits="objectBoundingBox"><feGaussianBlur stdDeviation="12.82 12.82" result="FeGaussianBlur1016Out" in="SourceGraphic"></feGaussianBlur></filter></defs><desc>Generated with Avocode.</desc><g><g opacity="0.1" filter="url(#Filter1015)"><title>Path 127</title><path d="M19.75861,54.20671v0c0,0 37.25709,127.69957 217.14771,83.94173c179.89073,-43.75781 156.46812,-11.51409 332.62492,0c176.1568,11.51409 336.39063,-43.17969 502.3125,-10.88281c165.92188,32.29688 201.93164,13.1543 296.19531,-18.32031c94.26367,-31.47461 80.85938,-107.57812 80.85938,-107.57812v0l-1448.60937,14.28125v0z" fill="#000000" fill-opacity="1"></path></g><g><title>Path 2</title><path d="M19.75861,53.20671v0c0,0 37.25709,127.69957 217.14771,83.94173c179.89073,-43.75781 156.46812,-11.51409 332.62492,0c176.1568,11.51409 336.39063,-43.17969 502.3125,-10.88281c165.92188,32.29688 201.93164,13.1543 296.19531,-18.32031c94.26367,-31.47461 80.85938,-107.57812 80.85938,-107.57812v0l-1448.60937,14.28125v0z" fill="#ffffff" fill-opacity="1"></path></g></g></svg>